<svg xmlns="http://www.w3.org/2000/svg" width="1200" height="640" viewBox="0 0 1200 640" font-family="system-ui, -apple-system, sans-serif">
<rect width="1200" height="640" fill="#14161A"/>
<text x="60" y="78" font-size="44" font-weight="700" fill="#EFF1F4">TEMPER</text>
<text x="248" y="78" font-size="20" fill="#B8BABD">Tuned, Equal-Mode Palettes for Every Reader</text>
<text x="60" y="112" font-size="18" font-style="italic" fill="#76A9EE">A well-tempered palette: every position playable, every floor held.</text>
<rect x="60" y="145" width="330" height="300" rx="10" fill="#25282C" stroke="#313438"/>
<text x="84" y="185" font-size="15" font-weight="700" letter-spacing="2" fill="#B8BABD">WHY IT EXISTS</text>
<text x="84" y="218" font-size="17" font-weight="600" fill="#EFF1F4">Readers differ.</text>
<text x="84" y="240" font-size="15" fill="#B8BABD">Eyes, screens, rooms, and</text>
<text x="84" y="260" font-size="15" fill="#B8BABD">color vision all vary.</text>
<text x="84" y="296" font-size="17" font-weight="600" fill="#EFF1F4">One palette fits</text>
<text x="84" y="318" font-size="15" fill="#B8BABD">one reader. Thirty themes</text>
<text x="84" y="338" font-size="15" fill="#B8BABD">compose into nothing.</text>
<text x="84" y="374" font-size="17" font-weight="600" fill="#EFF1F4">Designer-time tools</text>
<text x="84" y="396" font-size="15" fill="#B8BABD">stop at ship. The reader</text>
<text x="84" y="416" font-size="15" fill="#B8BABD">arrives after.</text>
<rect x="420" y="145" width="400" height="300" rx="10" fill="#25282C" stroke="#313438"/>
<text x="444" y="185" font-size="15" font-weight="700" letter-spacing="2" fill="#B8BABD">THREE READER DIALS</text>
<text x="444" y="222" font-size="16" font-weight="600" fill="#EFF1F4">Tone</text>
<rect x="560" y="204" width="42" height="26" rx="5" fill="#F0F4F9" stroke="#313438"/>
<rect x="614" y="204" width="42" height="26" rx="5" fill="#DBDEE3" stroke="#313438"/>
<rect x="668" y="204" width="42" height="26" rx="5" fill="#A9AEB4" stroke="#313438"/>
<text x="444" y="272" font-size="16" font-weight="600" fill="#EFF1F4">Color</text>
<rect x="560" y="254" width="34" height="26" rx="5" fill="#3E6FB0"/>
<rect x="604" y="254" width="34" height="26" rx="5" fill="#8A3B30"/>
<rect x="648" y="254" width="34" height="26" rx="5" fill="#4C6144"/>
<rect x="692" y="254" width="34" height="26" rx="5" fill="#8A6320"/>
<rect x="736" y="254" width="34" height="26" rx="5" fill="#5D5378"/>
<rect x="780" y="254" width="34" height="26" rx="5" fill="#4A5056"/>
<text x="444" y="322" font-size="16" font-weight="600" fill="#EFF1F4">Vision</text>
<rect x="560" y="304" width="42" height="26" rx="5" fill="none" stroke="#B8BABD"/>
<text x="581" y="322" font-size="13" font-weight="600" fill="#EFF1F4" text-anchor="middle">D</text>
<rect x="614" y="304" width="42" height="26" rx="5" fill="none" stroke="#B8BABD"/>
<text x="635" y="322" font-size="13" font-weight="600" fill="#EFF1F4" text-anchor="middle">RG</text>
<rect x="668" y="304" width="42" height="26" rx="5" fill="none" stroke="#B8BABD"/>
<text x="689" y="322" font-size="13" font-weight="600" fill="#EFF1F4" text-anchor="middle">BY</text>
<rect x="722" y="304" width="42" height="26" rx="5" fill="none" stroke="#B8BABD"/>
<text x="743" y="322" font-size="13" font-weight="600" fill="#EFF1F4" text-anchor="middle">M</text>
<text x="444" y="376" font-size="15" fill="#B8BABD">Every other color is solved from these,</text>
<text x="444" y="396" font-size="15" fill="#B8BABD">not picked: floors for legibility, ceilings</text>
<text x="444" y="416" font-size="15" fill="#B8BABD">for glare, held by computation.</text>
<rect x="850" y="145" width="290" height="300" rx="10" fill="#25282C" stroke="#313438"/>
<text x="874" y="185" font-size="15" font-weight="700" letter-spacing="2" fill="#B8BABD">VERIFIED, NOT PROMISED</text>
<text x="874" y="234" font-size="40" font-weight="700" fill="#74AE80">288/288</text>
<text x="874" y="262" font-size="15" fill="#B8BABD">positions pass every floor,</text>
<text x="874" y="282" font-size="15" fill="#B8BABD">on every surface, by script.</text>
<text x="874" y="322" font-size="16" font-weight="600" fill="#EFF1F4">Color vision: simulated,</text>
<text x="874" y="342" font-size="15" fill="#B8BABD">statuses stay apart with</text>
<text x="874" y="362" font-size="15" fill="#B8BABD">hue removed entirely.</text>
<text x="874" y="400" font-size="16" font-weight="600" fill="#EFF1F4">Meaning rides in text</text>
<text x="874" y="420" font-size="15" fill="#B8BABD">first; color reinforces.</text>
<rect x="60" y="480" width="1080" height="110" rx="10" fill="#25282C" stroke="#313438"/>
<text x="84" y="516" font-size="15" font-weight="700" letter-spacing="2" fill="#B8BABD">AGAINST THE FIELD</text>
<text x="84" y="544" font-size="16" font-weight="600" fill="#76A9EE">vs theme lists</text>
<text x="84" y="564" font-size="14" fill="#B8BABD">composes; 30 constants,</text>
<text x="84" y="581" font-size="14" fill="#B8BABD">288 guaranteed positions</text>
<text x="349" y="544" font-size="16" font-weight="600" fill="#76A9EE">vs design-time tools</text>
<text x="349" y="564" font-size="14" fill="#B8BABD">runs at read time;</text>
<text x="349" y="581" font-size="14" fill="#B8BABD">the reader governs</text>
<text x="614" y="544" font-size="16" font-weight="600" fill="#76A9EE">vs overlays</text>
<text x="614" y="564" font-size="14" fill="#B8BABD">writes real tokens;</text>
<text x="614" y="581" font-size="14" fill="#B8BABD">no filter, no claims</text>
<text x="879" y="544" font-size="16" font-weight="600" fill="#76A9EE">vs OS toggles</text>
<text x="879" y="564" font-size="14" fill="#B8BABD">measured floors ahead,</text>
<text x="879" y="581" font-size="14" fill="#B8BABD">not binary switches</text>
<text x="1140" y="622" font-size="13" fill="#B8BABD" text-anchor="end">Apache-2.0 · built because I wanted it to exist</text>
</svg>